# xmcd
# 
# Track frame offsets:
#     215
#     19947
#     39627
#     63502
#     76712
#     95340
#     109580
#     124772
#     141082
#     162900
# 
# Disc length: 2456
# 
# Revision: 2
# Processed by: cddbd v1.5.2PL0 Copyright (c) Steve Scherf et al.
# Submitted via: BonkEnc v1.0
# 
DISCID=7a09960a
DTITLE=George Thorogood and The Destroyers - Move It On Over
DYEAR=1978
DGENRE=Rock
TTITLE0=Move It On Over
TTITLE1=Who Do You Love
TTITLE2=The Sky Is Crying
TTITLE3=Cocaine Blues
TTITLE4=It Wasn't Me
TTITLE5=That Same Thing
TTITLE6=So Much Trouble
TTITLE7=I'm Just Your Good Thing
TTITLE8=Baby Please Set A Date
TTITLE9=New Hawaiian Boogie
EXTD=
EXTT0=
EXTT1=
EXTT2=
EXTT3=
EXTT4=
EXTT5=
EXTT6=
EXTT7=
EXTT8=
EXTT9=
PLAYORDER=
